<?xml version="1.0" encoding="UTF-8" standalone="no"?>
<svg
   xmlns:dc="http://purl.org/dc/elements/1.1/"
   xmlns:cc="http://creativecommons.org/ns#"
   xmlns:rdf="http://www.w3.org/1999/02/22-rdf-syntax-ns#"
   xmlns:svg="http://www.w3.org/2000/svg"
   xmlns="http://www.w3.org/2000/svg"
   id="svg140"
   xml:space="preserve"
   enable-background="new 0 0 457.718 440.164"
   viewBox="0 0 457.7 440.2"
   y="0"
   x="0"
   version="1.1"
   class="logo"><metadata
   id="metadata144"><rdf:RDF><cc:Work
       rdf:about=""><dc:format>image/svg+xml</dc:format><dc:type
         rdf:resource="http://purl.org/dc/dcmitype/StillImage" /><dc:title></dc:title></cc:Work></rdf:RDF></metadata>
  <defs
   id="defs4">
    <rect
   id="rect2"
   height="600"
   width="600"
   y="-79.9"
   x="-71.1" />
  <rect
   id="rect10"
   height="600"
   width="600"
   y="-79.900002"
   x="-71.099998" /><rect
   id="rect18"
   height="87.099998"
   width="225.3"
   y="261.10001"
   x="39.099998" /><rect
   id="rect30"
   height="202.89999"
   width="233.5"
   y="141.8"
   x="0" /><rect
   id="rect42"
   height="241.2"
   width="152.5"
   y="52.299999"
   x="48.299999" /><rect
   id="rect54"
   height="241.2"
   width="152.5"
   x="96"
   y="0" /><rect
   id="rect66"
   height="202.89999"
   width="233.5"
   y="4.8000002"
   x="124.8" /><rect
   id="rect78"
   height="87.099998"
   width="225.3"
   y="91.900002"
   x="193.3" /><rect
   id="rect90"
   height="202.89999"
   width="233.5"
   y="95.5"
   x="224.2" /><rect
   id="rect102"
   height="241.2"
   width="152.5"
   y="146.7"
   x="256.89999" /><rect
   id="rect114"
   height="241.2"
   width="152.5"
   y="199"
   x="209.3" /><rect
   id="rect126"
   height="202.89999"
   width="233.5"
   y="232.39999"
   x="99.5" /><filter
   id="filter1341"
   style="color-interpolation-filters:sRGB;"><feColorMatrix
     id="feColorMatrix1333"
     result="result2"
     type="luminanceToAlpha" /><feComposite
     id="feComposite1335"
     result="result4"
     k3="2"
     in="result2"
     operator="arithmetic"
     in2="SourceGraphic" /><feBlend
     id="feBlend1337"
     in2="result2"
     result="result3"
     mode="multiply"
     in="result4" /><feComposite
     id="feComposite1339"
     in="result3"
     operator="in"
     in2="SourceGraphic" /></filter></defs>
  <clipPath
   id="clipPath8">
    <use
   id="use6"
   overflow="visible" />
  </clipPath>
  
<g
   style="display:none"
   id="layer1"><g
     style="filter:url(#filter1341)"
     id="g138"
     clip-path="url(#SVGID_2_)"
     transform="translate(-0.12885867,-0.24431397)"><defs
       id="defs12"><rect
         id="rect1105"
         height="600"
         width="600"
         y="-79.900002"
         x="-71.099998" /></defs><clipPath
       id="clipPath16"><use
         id="use14"
         overflow="visible"
         style="overflow:visible"
         x="0"
         y="0"
         width="100%"
         height="100%" /></clipPath><g
       id="g28"
       clip-path="url(#SVGID_4_)"
       style="opacity:0.8"><defs
         id="defs20"><rect
           id="rect1110"
           height="87.099998"
           width="225.3"
           y="261.10001"
           x="39.099998" /></defs><clipPath
         id="clipPath24"><use
           id="use22"
           overflow="visible"
           style="overflow:visible"
           x="0"
           y="0"
           width="100%"
           height="100%" /></clipPath><rect
         id="rect26"
         height="87.099998"
         width="225.3"
         clip-path="url(#SVGID_6_)"
         y="261.10001"
         x="39.099998"
         style="fill:#ffffff" /></g><g
       id="g40"
       clip-path="url(#SVGID_4_)"
       style="opacity:0.8"><defs
         id="defs32"><rect
           id="rect1117"
           height="202.89999"
           width="233.5"
           y="141.8"
           x="0" /></defs><clipPath
         id="clipPath36"><use
           id="use34"
           overflow="visible"
           style="overflow:visible"
           x="0"
           y="0"
           width="100%"
           height="100%" /></clipPath><rect
         id="rect38"
         height="87.099998"
         width="225.3"
         clip-path="url(#SVGID_8_)"
         transform="matrix(0.809,0.5878,-0.5878,0.809,165.2552,-22.1691)"
         y="199.7"
         x="4.0999999"
         style="fill:#ffffff" /></g><g
       id="g52"
       clip-path="url(#SVGID_4_)"
       style="opacity:0.8"><defs
         id="defs44"><rect
           id="rect1124"
           height="241.2"
           width="152.5"
           y="52.299999"
           x="48.299999" /></defs><clipPath
         id="clipPath48"><use
           id="use46"
           overflow="visible"
           style="overflow:visible"
           x="0"
           y="0"
           width="100%"
           height="100%" /></clipPath><rect
         id="rect50"
         height="87.099998"
         width="225.3"
         clip-path="url(#SVGID_10_)"
         transform="matrix(0.309,0.9511,-0.9511,0.309,250.5018,1.0091)"
         y="129.3"
         x="11.9"
         style="fill:#ffffff" /></g><g
       id="g64"
       clip-path="url(#SVGID_4_)"
       style="opacity:0.8"><defs
         id="defs56"><rect
           id="rect1131"
           height="241.2"
           width="152.5"
           x="96"
           y="0" /></defs><clipPath
         id="clipPath60"><use
           id="use58"
           overflow="visible"
           style="overflow:visible"
           x="0"
           y="0"
           width="100%"
           height="100%" /></clipPath><rect
         id="rect62"
         height="87.099998"
         width="225.3"
         clip-path="url(#SVGID_12_)"
         transform="matrix(-0.309,0.9511,-0.9511,-0.309,340.126,-5.9108)"
         y="77"
         x="59.599998"
         style="fill:#ffffff" /></g><g
       id="g76"
       clip-path="url(#SVGID_4_)"
       style="opacity:0.8"><defs
         id="defs68"><rect
           id="rect1138"
           height="202.89999"
           width="233.5"
           y="4.8000002"
           x="124.8" /></defs><clipPath
         id="clipPath72"><use
           id="use70"
           overflow="visible"
           style="overflow:visible"
           x="0"
           y="0"
           width="100%"
           height="100%" /></clipPath><rect
         id="rect74"
         height="87.099998"
         width="225.3"
         clip-path="url(#SVGID_14_)"
         transform="matrix(-0.809,0.5878,-0.5878,-0.809,499.3647,50.3579)"
         y="62.700001"
         x="128.8"
         style="fill:#ffffff" /></g><g
       id="g88"
       clip-path="url(#SVGID_4_)"
       style="opacity:0.8"><defs
         id="defs80"><rect
           id="rect1145"
           height="87.099998"
           width="225.3"
           y="91.900002"
           x="193.3" /></defs><clipPath
         id="clipPath84"><use
           id="use82"
           overflow="visible"
           style="overflow:visible"
           x="0"
           y="0"
           width="100%"
           height="100%" /></clipPath><rect
         id="rect86"
         height="87.099998"
         width="225.3"
         clip-path="url(#SVGID_16_)"
         y="91.900002"
         x="193.3"
         style="fill:#ffffff" /></g><g
       id="g100"
       clip-path="url(#SVGID_4_)"
       style="opacity:0.8"><defs
         id="defs92"><rect
           id="rect1152"
           height="202.89999"
           width="233.5"
           y="95.5"
           x="224.2" /></defs><clipPath
         id="clipPath96"><use
           id="use94"
           overflow="visible"
           style="overflow:visible"
           x="0"
           y="0"
           width="100%"
           height="100%" /></clipPath><rect
         id="rect98"
         height="87.099998"
         width="225.3"
         clip-path="url(#SVGID_18_)"
         transform="matrix(-0.809,-0.5878,0.5878,-0.809,501.0667,556.7014)"
         y="153.39999"
         x="228.3"
         style="fill:#ffffff" /></g><g
       id="g112"
       clip-path="url(#SVGID_4_)"
       style="opacity:0.8"><defs
         id="defs104"><rect
           id="rect1159"
           height="241.2"
           width="152.5"
           y="146.7"
           x="256.89999" /></defs><clipPath
         id="clipPath108"><use
           id="use106"
           overflow="visible"
           style="overflow:visible"
           x="0"
           y="0"
           width="100%"
           height="100%" /></clipPath><rect
         id="rect110"
         height="87.099998"
         width="225.3"
         clip-path="url(#SVGID_20_)"
         transform="matrix(-0.309,-0.9511,0.9511,-0.309,181.9275,666.7085)"
         y="223.7"
         x="220.5"
         style="fill:#ffffff" /></g><g
       id="g124"
       clip-path="url(#SVGID_4_)"
       style="opacity:0.8"><defs
         id="defs116"><rect
           id="rect1166"
           height="241.2"
           width="152.5"
           y="199"
           x="209.3" /></defs><clipPath
         id="clipPath120"><use
           id="use118"
           overflow="visible"
           style="overflow:visible"
           x="0"
           y="0"
           width="100%"
           height="100%" /></clipPath><rect
         id="rect122"
         height="87.099998"
         width="225.3"
         clip-path="url(#SVGID_22_)"
         transform="matrix(0.309,-0.9511,0.9511,0.309,-106.641,492.3453)"
         y="276"
         x="172.89999"
         style="fill:#ffffff" /></g><g
       id="g136"
       clip-path="url(#SVGID_4_)"
       style="opacity:0.8"><defs
         id="defs128"><rect
           id="rect1173"
           height="202.89999"
           width="233.5"
           y="232.39999"
           x="99.5" /></defs><clipPath
         id="clipPath132"><use
           id="use130"
           overflow="visible"
           style="overflow:visible"
           x="0"
           y="0"
           width="100%"
           height="100%" /></clipPath><rect
         id="rect134"
         height="87.099998"
         width="225.3"
         clip-path="url(#SVGID_24_)"
         transform="matrix(0.809,-0.5878,0.5878,0.809,-154.9439,190.8481)"
         y="290.29999"
         x="103.6"
         style="fill:#ffffff" /></g></g><flowRoot
     style="font-style:normal;font-weight:normal;font-size:40px;line-height:1.25;font-family:sans-serif;letter-spacing:0px;word-spacing:0px;fill:#4c47cb;fill-opacity:1;stroke:none"
     id="flowRoot1343"
     xml:space="preserve"><flowRegion
       style="fill:#4c47cb;fill-opacity:1"
       id="flowRegion1345"><rect
         style="fill:#4c47cb;fill-opacity:1"
         y="124.12328"
         x="59.396969"
         height="198.69701"
         width="345.06812"
         id="rect1347" /></flowRegion><flowPara
       id="flowPara1349" /></flowRoot></g><g
   id="g1311"
   style="display:inline"><g
     transform="translate(-0.12885867,-0.24431397)"
     clip-path="url(#SVGID_2_)"
     id="g1309"><defs
       id="defs1183"><rect
         x="-71.099998"
         y="-79.900002"
         width="600"
         height="600"
         id="rect1181" /></defs><clipPath
       id="clipPath1187"><use
         height="100%"
         width="100%"
         y="0"
         x="0"
         style="overflow:visible"
         overflow="visible"
         id="use1185" /></clipPath><g
       style="opacity:0.8"
       clip-path="url(#SVGID_4_)"
       id="g1199"><defs
         id="defs1191"><rect
           x="39.099998"
           y="261.10001"
           width="225.3"
           height="87.099998"
           id="rect1189" /></defs><clipPath
         id="clipPath1195"><use
           height="100%"
           width="100%"
           y="0"
           x="0"
           style="overflow:visible"
           overflow="visible"
           id="use1193" /></clipPath><rect
         style="fill:#ffffff"
         x="39.099998"
         y="261.10001"
         clip-path="url(#SVGID_6_)"
         width="225.3"
         height="87.099998"
         id="rect1197" /></g><g
       style="opacity:0.8"
       clip-path="url(#SVGID_4_)"
       id="g1211"><defs
         id="defs1203"><rect
           x="0"
           y="141.8"
           width="233.5"
           height="202.89999"
           id="rect1201" /></defs><clipPath
         id="clipPath1207"><use
           height="100%"
           width="100%"
           y="0"
           x="0"
           style="overflow:visible"
           overflow="visible"
           id="use1205" /></clipPath><rect
         style="fill:#ffffff"
         x="4.0999999"
         y="199.7"
         transform="matrix(0.809,0.5878,-0.5878,0.809,165.2552,-22.1691)"
         clip-path="url(#SVGID_8_)"
         width="225.3"
         height="87.099998"
         id="rect1209" /></g><g
       style="opacity:0.8"
       clip-path="url(#SVGID_4_)"
       id="g1223"><defs
         id="defs1215"><rect
           x="48.299999"
           y="52.299999"
           width="152.5"
           height="241.2"
           id="rect1213" /></defs><clipPath
         id="clipPath1219"><use
           height="100%"
           width="100%"
           y="0"
           x="0"
           style="overflow:visible"
           overflow="visible"
           id="use1217" /></clipPath><rect
         style="fill:#ffffff"
         x="11.9"
         y="129.3"
         transform="matrix(0.309,0.9511,-0.9511,0.309,250.5018,1.0091)"
         clip-path="url(#SVGID_10_)"
         width="225.3"
         height="87.099998"
         id="rect1221" /></g><g
       style="opacity:0.8"
       clip-path="url(#SVGID_4_)"
       id="g1235"><defs
         id="defs1227"><rect
           y="0"
           x="96"
           width="152.5"
           height="241.2"
           id="rect1225" /></defs><clipPath
         id="clipPath1231"><use
           height="100%"
           width="100%"
           y="0"
           x="0"
           style="overflow:visible"
           overflow="visible"
           id="use1229" /></clipPath><rect
         style="fill:#ffffff"
         x="59.599998"
         y="77"
         transform="matrix(-0.309,0.9511,-0.9511,-0.309,340.126,-5.9108)"
         clip-path="url(#SVGID_12_)"
         width="225.3"
         height="87.099998"
         id="rect1233" /></g><g
       style="opacity:0.8"
       clip-path="url(#SVGID_4_)"
       id="g1247"><defs
         id="defs1239"><rect
           x="124.8"
           y="4.8000002"
           width="233.5"
           height="202.89999"
           id="rect1237" /></defs><clipPath
         id="clipPath1243"><use
           height="100%"
           width="100%"
           y="0"
           x="0"
           style="overflow:visible"
           overflow="visible"
           id="use1241" /></clipPath><rect
         style="fill:#ffffff"
         x="128.8"
         y="62.700001"
         transform="matrix(-0.809,0.5878,-0.5878,-0.809,499.3647,50.3579)"
         clip-path="url(#SVGID_14_)"
         width="225.3"
         height="87.099998"
         id="rect1245" /></g><g
       style="opacity:0.8"
       clip-path="url(#SVGID_4_)"
       id="g1259"><defs
         id="defs1251"><rect
           x="193.3"
           y="91.900002"
           width="225.3"
           height="87.099998"
           id="rect1249" /></defs><clipPath
         id="clipPath1255"><use
           height="100%"
           width="100%"
           y="0"
           x="0"
           style="overflow:visible"
           overflow="visible"
           id="use1253" /></clipPath><rect
         style="fill:#ffffff"
         x="193.3"
         y="91.900002"
         clip-path="url(#SVGID_16_)"
         width="225.3"
         height="87.099998"
         id="rect1257" /></g><g
       style="opacity:0.8"
       clip-path="url(#SVGID_4_)"
       id="g1271"><defs
         id="defs1263"><rect
           x="224.2"
           y="95.5"
           width="233.5"
           height="202.89999"
           id="rect1261" /></defs><clipPath
         id="clipPath1267"><use
           height="100%"
           width="100%"
           y="0"
           x="0"
           style="overflow:visible"
           overflow="visible"
           id="use1265" /></clipPath><rect
         style="fill:#ffffff"
         x="228.3"
         y="153.39999"
         transform="matrix(-0.809,-0.5878,0.5878,-0.809,501.0667,556.7014)"
         clip-path="url(#SVGID_18_)"
         width="225.3"
         height="87.099998"
         id="rect1269" /></g><g
       style="opacity:0.8"
       clip-path="url(#SVGID_4_)"
       id="g1283"><defs
         id="defs1275"><rect
           x="256.89999"
           y="146.7"
           width="152.5"
           height="241.2"
           id="rect1273" /></defs><clipPath
         id="clipPath1279"><use
           height="100%"
           width="100%"
           y="0"
           x="0"
           style="overflow:visible"
           overflow="visible"
           id="use1277" /></clipPath><rect
         style="fill:#ffffff"
         x="220.5"
         y="223.7"
         transform="matrix(-0.309,-0.9511,0.9511,-0.309,181.9275,666.7085)"
         clip-path="url(#SVGID_20_)"
         width="225.3"
         height="87.099998"
         id="rect1281" /></g><g
       style="opacity:0.8"
       clip-path="url(#SVGID_4_)"
       id="g1295"><defs
         id="defs1287"><rect
           x="209.3"
           y="199"
           width="152.5"
           height="241.2"
           id="rect1285" /></defs><clipPath
         id="clipPath1291"><use
           height="100%"
           width="100%"
           y="0"
           x="0"
           style="overflow:visible"
           overflow="visible"
           id="use1289" /></clipPath><rect
         style="fill:#ffffff"
         x="172.89999"
         y="276"
         transform="matrix(0.309,-0.9511,0.9511,0.309,-106.641,492.3453)"
         clip-path="url(#SVGID_22_)"
         width="225.3"
         height="87.099998"
         id="rect1293" /></g><g
       style="opacity:0.8"
       clip-path="url(#SVGID_4_)"
       id="g1307"><defs
         id="defs1299"><rect
           x="99.5"
           y="232.39999"
           width="233.5"
           height="202.89999"
           id="rect1297" /></defs><clipPath
         id="clipPath1303"><use
           height="100%"
           width="100%"
           y="0"
           x="0"
           style="overflow:visible"
           overflow="visible"
           id="use1301" /></clipPath><rect
         style="fill:#ffffff"
         x="103.6"
         y="290.29999"
         transform="matrix(0.809,-0.5878,0.5878,0.809,-154.9439,190.8481)"
         clip-path="url(#SVGID_24_)"
         width="225.3"
         height="87.099998"
         id="rect1305" /></g></g></g><g
   style="display:inline"
   id="layer2"><path
     d="m 294.4707,168.81641 v 11.34179 h 13.23438 V 168.81641 Z M 67.546875,169.39844 V 256 H 126.35352 V 245.76367 H 79.90625 v -76.36523 z m 97.511715,19.83203 c -9.8636,0 -17.70855,3.08299 -23.53515,9.24805 -5.78499,6.12628 -8.67774,14.48112 -8.67774,25.0664 0,10.58529 2.89275,18.94208 8.67774,25.06836 5.8266,6.12628 13.67155,9.18945 23.53515,9.18945 9.78037,0 17.58356,-3.06317 23.41016,-9.18945 5.8266,-6.12628 8.74023,-14.48307 8.74023,-25.06836 0,-10.58528 -2.91363,-18.94012 -8.74023,-25.0664 -5.8266,-6.16506 -13.62979,-9.24805 -23.41016,-9.24805 z m 76.41211,0 c -3.82891,0 -7.68025,0.77521 -11.55078,2.32617 -3.87053,1.51218 -7.15807,3.64549 -9.86328,6.39844 -2.9133,2.94682 -5.22333,6.45608 -6.92969,10.52734 -1.66474,4.03249 -2.49609,8.84038 -2.49609,14.42383 0,10.19755 2.43531,18.10629 7.30469,23.72852 4.91099,5.58344 11.52784,8.375 19.85156,8.375 4.99423,0 9.0942,-0.63843 12.29883,-1.91797 3.24625,-1.31832 6.6382,-3.29697 10.17578,-5.9336 v 5.9336 c 0,2.63662 -0.31322,5.01977 -0.9375,7.15234 -0.62428,2.13257 -1.66444,3.95657 -3.1211,5.46875 -1.45665,1.58973 -3.49521,2.8289 -6.11718,3.7207 -2.62197,0.8918 -5.93235,1.33789 -9.92774,1.33789 -4.16185,0 -8.32251,-0.52341 -12.48437,-1.57031 -4.16186,-1.00812 -7.20078,-1.86066 -9.11524,-2.55859 h -0.62304 v 11.16601 c 3.41272,0.8918 6.86536,1.57183 10.36133,2.03711 3.53757,0.50406 7.15922,0.75586 10.86328,0.75586 11.15378,0 19.4144,-2.57939 24.7832,-7.73633 5.3688,-5.15693 8.05469,-13.24015 8.05469,-24.25195 V 191.0332 h -10.98828 l -0.74805,2.79297 c -3.03816,-1.55096 -5.93091,-2.69493 -8.67774,-3.43164 -2.7052,-0.77548 -6.07627,-1.16406 -10.11328,-1.16406 z m 123.98047,0 c -4.12024,0 -8.13668,0.79503 -12.04883,2.38476 -3.91214,1.58974 -7.69889,3.80037 -11.36132,6.63086 V 191.0332 H 330.30469 V 256 h 11.73633 v -48.50781 c 3.20463,-2.28767 6.55482,-4.16722 10.05078,-5.64063 3.49596,-1.47341 6.84615,-2.21094 10.05078,-2.21094 3.12139,10e-6 5.66111,0.40841 7.61719,1.22266 1.95607,0.77548 3.45367,1.97696 4.49414,3.60547 0.99884,1.47341 1.68598,3.52743 2.06054,6.16406 0.37457,2.59786 0.5625,5.39136 0.5625,8.37696 V 256 h 11.73633 v -42.16797 c 0,-7.94866 -1.97787,-14.03536 -5.93164,-18.26172 -3.95376,-4.22636 -9.69751,-6.33984 -17.23047,-6.33984 z M 295.2207,191.0332 V 256 h 11.73633 v -64.9668 z m -130.16211,7.61914 c 6.28441,0 11.19485,2.05598 14.73243,6.16602 3.53757,4.07126 5.30664,10.31262 5.30664,18.72656 0,8.22008 -1.78995,14.42374 -5.36914,18.61133 -3.53758,4.14881 -8.42714,6.22461 -14.66993,6.22461 -6.32602,0 -11.25734,-2.09366 -14.79492,-6.28125 -3.53758,-4.22636 -5.30664,-10.41216 -5.30664,-18.55469 0,-8.41394 1.74818,-14.6553 5.24414,-18.72656 3.53758,-4.11004 8.48978,-6.16602 14.85742,-6.16602 z m 78.47071,0.40821 c 2.66359,0 5.3286,0.28948 7.99218,0.87109 2.70521,0.54284 5.61885,1.47466 8.74024,2.79297 v 35.41992 c -2.87168,2.05502 -6.03589,3.70259 -9.49024,4.94336 -3.41272,1.20199 -6.82555,1.80274 -10.23828,1.80273 -6.36764,0 -10.92505,-1.8815 -13.67187,-5.64257 -2.74683,-3.76108 -4.11914,-9.28472 -4.11914,-16.57422 0,-7.67724 1.85063,-13.53197 5.55469,-17.56445 3.70405,-4.03249 8.78154,-6.04883 15.23242,-6.04883 z"
     style="font-style:normal;font-weight:normal;font-size:40px;line-height:1.25;font-family:sans-serif;letter-spacing:0px;word-spacing:0px;fill:#ff2828;fill-opacity:1;stroke:none;stroke-width:3.08513951"
     id="flowRoot1352" /><rect
     transform="matrix(0.99999992,3.8732907e-4,-0.01663905,0.99986156,0,0)"
     ry="0"
     y="168.73871"
     x="296.01254"
     height="13.113387"
     width="14.142093"
     id="rect974-7-8-2"
     style="display:inline;fill:#ff2a2a;fill-opacity:1;stroke:none;stroke-width:0.23464981;stroke-opacity:1" /></g><g
   style="display:none"
   id="layer3"><rect
     ry="0"
     y="169.02457"
     x="67.882248"
     height="86.620583"
     width="14.142136"
     id="rect974"
     style="fill:#ff2a2a;fill-opacity:1;stroke:none;stroke-width:0.60307866;stroke-opacity:1" /><rect
     transform="matrix(0.00167448,-0.9999986,0.99999319,0.00369038,0,0)"
     ry="0"
     y="68.310364"
     x="-255.3934"
     height="58.347916"
     width="14.142112"
     id="rect974-7"
     style="display:inline;fill:#ff2a2a;fill-opacity:1;stroke:none;stroke-width:0.49496642;stroke-opacity:1" /><rect
     transform="matrix(0.99999813,0.00193244,-0.00333549,0.99999444,0,0)"
     ry="0"
     y="190.53711"
     x="293.84097"
     height="65.415985"
     width="14.142118"
     id="rect974-7-8"
     style="display:inline;fill:#ff2a2a;fill-opacity:1;stroke:none;stroke-width:0.52408904;stroke-opacity:1" /><rect
     transform="matrix(0.99999813,0.00193244,-0.00333549,0.99999444,0,0)"
     ry="0"
     y="190.11455"
     x="329.54849"
     height="65.415985"
     width="14.142118"
     id="rect974-7-8-1"
     style="display:inline;fill:#ff2a2a;fill-opacity:1;stroke:none;stroke-width:0.52408904;stroke-opacity:1" /><path
     d="m 163,188.69922 a 29.5,32.25 0 0 0 -29.5,32.25 29.5,32.25 0 0 0 29.5,32.25 29.5,32.25 0 0 0 29.5,-32.25 29.5,32.25 0 0 0 -29.5,-32.25 z m 6.63086,20.3418 c 0.11622,0.004 0.23366,0.005 0.34961,0.0137 0.3972,0.0313 0.78104,0.1308 1.16797,0.21679 0.14735,0.0486 0.29823,0.0876 0.44336,0.14258 0.0231,0.009 0.0382,0.0325 0.0605,0.043 0.0269,0.0127 0.0561,0.0205 0.084,0.0312 0.0185,-0.005 0.0312,-0.0125 0.0508,-0.0176 0.0673,-0.0175 0.11099,0.0336 0.14844,0.10157 0.0551,0.0229 0.11139,0.0442 0.16015,0.0801 0.18633,0.10357 -0.15611,-0.0828 0.25586,0.11328 0.14579,0.0694 0.28404,0.1688 0.42188,0.25 0.1206,0.0644 0.24992,0.12956 0.36328,0.20508 0.0491,0.0327 0.0926,0.0752 0.14062,0.10938 0.0583,0.0415 0.12703,0.0687 0.17774,0.11914 0.0107,0.0106 -0.0271,0.01 -0.041,0.0156 0.0737,0.0227 0.14871,0.0409 0.22071,0.0684 0.11563,0.0442 0.19774,0.14772 0.28711,0.22657 0.43485,0.3837 0.31277,0.27316 0.48046,0.44335 0.0589,0.026 0.11388,0.0628 0.20313,0.11524 0.10099,0.0885 0.20576,0.15118 0.30078,0.25195 0.0292,0.031 -0.13553,-0.10387 -0.10156,-0.0781 0.18506,0.14019 0.23163,0.15933 0.13476,0.11133 0.0657,0.0606 0.13351,0.11908 0.19727,0.18164 0.004,0.004 0.005,0.0126 0.004,0.0156 0.1092,0.0804 0.2043,0.17671 0.30274,0.28125 0.0362,0.0711 0.0807,0.13968 0.10742,0.21485 0.0215,0.0603 0.0318,0.12418 0.043,0.1875 0.054,0.0634 0.11192,0.1235 0.16016,0.1914 0.0729,0.10258 0.126,0.21947 0.18945,0.32813 0.0439,0.0752 0.11383,0.1756 0.13086,0.26757 0.10418,0.14254 0.13343,0.15576 0.18555,0.30274 0.004,0.01 -0.004,0.0219 0,0.0312 0.081,0.16083 0.21195,0.29443 0.28711,0.45898 0.0743,0.11327 0.16123,0.23629 0.2207,0.35743 0.0239,0.0486 0.0376,0.10161 0.0566,0.15234 0.003,0.0148 0.004,0.0289 0.01,0.043 0.0678,0.17174 0.0777,0.0958 0.0625,0.17773 0.0844,0.1438 0.13078,0.19739 0.17383,0.35156 0.005,0.0183 -0.009,0.0399 0,0.0566 0.0437,0.0826 0.11256,0.15081 0.1543,0.23438 0.0921,0.18441 0.0979,0.29578 0.13281,0.49023 0.006,0.2231 0.0795,0.28699 0.14258,0.51368 0.0225,0.0808 0.0265,0.16516 0.0391,0.24804 -0.003,0.0244 -0.0131,0.0498 -0.01,0.0742 0.005,0.0384 0.0233,0.0725 0.0351,0.10938 0.0788,0.2058 0.15423,0.41481 0.18555,0.63476 0.0216,0.1515 -0.0194,0.31108 0,0.46289 -1.4e-4,0.38489 -0.001,0.76941 0,1.1543 0.001,0.40393 -0.004,0.80897 -0.004,1.21289 0.0101,0.49762 0.0581,1.00014 -0.041,1.49219 -0.0524,0.17626 -0.01,0.005 -0.0176,0.33203 -0.009,0.38675 -0.11774,0.75374 -0.13867,1.13867 -0.0203,0.18838 -0.0227,0.37804 -0.043,0.56641 -0.0407,0.37759 -0.17673,0.73834 -0.24219,1.11133 -0.0258,0.079 -0.0554,0.15776 -0.0762,0.23828 -0.0724,0.28048 -0.0911,0.57065 -0.16016,0.85156 -0.0239,0.0973 -0.0569,0.1912 -0.0859,0.28711 -0.0278,0.0921 -0.0559,0.18531 -0.084,0.27734 -0.062,0.23705 -0.13905,0.56346 -0.23437,0.78907 -0.0526,0.1246 -0.12447,0.23966 -0.1875,0.35937 -0.15717,0.29853 -0.32087,0.59384 -0.44532,0.9082 -0.0684,0.12861 -0.19817,0.37908 -0.27734,0.5 -0.0634,0.0969 -0.16693,0.16564 -0.20508,0.28125 -0.0517,0.0809 -0.0943,0.16765 -0.15234,0.24414 -0.0519,0.0684 -0.11711,0.12677 -0.17578,0.18946 -0.24482,0.18757 0.079,-0.0694 -0.25977,0.23828 -0.0214,0.0195 -0.0523,0.0279 -0.0723,0.0488 -0.16908,0.17624 -0.2949,0.39873 -0.50586,0.53515 -0.19179,0.19141 -0.20294,0.22231 -0.42774,0.36719 -0.0756,0.0487 -0.17059,0.0634 -0.24414,0.11523 -0.13384,0.0942 -0.2299,0.23487 -0.3789,0.31055 -0.13809,0.0953 -0.26191,0.21088 -0.40235,0.30274 -0.10633,0.0695 -0.23372,0.10442 -0.34375,0.16796 -0.0723,0.0417 -0.13764,0.093 -0.21094,0.13282 -0.0456,0.0248 -0.0968,0.04 -0.14453,0.0605 -0.0322,0.0191 -0.0633,0.0398 -0.0957,0.0586 -0.007,0.0253 -0.008,0.0509 -0.0156,0.0762 -0.0813,0.28098 -0.21982,0.54157 -0.33007,0.8125 -0.14021,0.18684 -0.21831,0.44598 -0.42188,0.56055 -0.52277,0.2942 -0.84854,0.21354 -0.97656,-0.29102 -0.0152,-0.0599 -0.0155,-0.12348 -0.0176,-0.18555 -0.007,0.002 -0.0142,0.006 -0.0215,0.008 -0.009,0.003 -0.019,-0.007 -0.0274,-0.002 -0.39198,0.20555 -0.0269,0.0585 -0.41601,0.19922 -0.4133,0.0975 0.2695,-0.0728 -0.39063,0.1582 -0.24729,0.0865 -0.49822,0.0583 -0.7539,0.0605 -0.3575,2e-5 -0.71671,3e-4 -1.07422,0 -0.46427,-3.2e-4 -0.92831,-3.9e-4 -1.39258,0.002 -0.043,-7e-5 -0.0859,2.8e-4 -0.12891,0 -0.32146,0.0836 -0.61821,0.16356 -0.95703,0.0625 -0.0494,-0.0204 -0.0984,-0.0415 -0.14844,-0.0605 -0.0696,10e-4 -0.13936,-0.003 -0.20898,0 -0.24226,0.0153 -0.48188,0.0294 -0.72461,0.01 -0.32688,-0.0265 -0.2779,-0.0353 -0.58398,-0.082 -0.10642,-0.0162 -0.21365,-0.0285 -0.32032,-0.043 -0.098,-0.0252 -0.34097,-0.0866 -0.4375,-0.11914 -0.0391,-0.0131 -0.0742,-0.0359 -0.11328,-0.0488 -0.14089,-0.0461 -0.29005,-0.0635 -0.43164,-0.10743 -0.0724,-0.0224 -0.1405,-0.056 -0.21094,-0.084 -0.20261,-0.0831 -0.39134,-0.17377 -0.58593,-0.27344 -0.17831,-0.0913 -0.36378,-0.17015 -0.50196,-0.32031 -0.64365,-0.30461 0.26239,0.13157 -0.30273,-0.15625 -0.0876,-0.0446 -0.18011,-0.0784 -0.26563,-0.12695 -0.12947,-0.0735 -0.23691,-0.1942 -0.38086,-0.2461 0.1005,0.003 0.0153,0.004 -0.0762,-0.0273 -0.32083,-0.11013 -0.39762,-0.17882 -0.65429,-0.38867 -0.0535,-0.0438 -0.10267,-0.0927 -0.1543,-0.13868 -0.0684,-0.051 -0.28857,-0.21253 -0.33984,-0.25781 -0.14917,-0.13175 -0.25576,-0.31421 -0.43946,-0.41015 -0.0752,-0.20719 -0.35076,-0.26317 -0.46679,-0.43946 -0.0666,-0.0577 -0.13642,-0.11006 -0.19922,-0.17187 -0.0276,-0.0272 -0.0473,-0.0625 -0.0703,-0.0937 -0.0625,-0.0848 -0.13003,-0.16756 -0.1875,-0.25586 -0.006,-0.01 0.0323,-0.0407 0.0352,-0.004 -0.0506,-0.0456 -0.10173,-0.0911 -0.15234,-0.13672 -0.0783,-0.13789 0.0455,0.0657 -0.17969,-0.17968 -0.15588,-0.16986 -0.19964,-0.37272 -0.30469,-0.56836 -0.0692,-0.11011 -0.39714,-0.58221 -0.35156,-0.67383 0.002,-0.003 0.004,0.005 0.006,0.004 -0.0932,-0.10781 -0.19111,-0.21633 -0.27149,-0.32812 -0.0812,-0.11296 -0.10768,-0.25506 -0.23242,-0.33984 -0.0465,-0.072 -0.10086,-0.14088 -0.14062,-0.2168 -0.0335,-0.0638 -0.0503,-0.13472 -0.0781,-0.20117 -0.11628,-0.27748 -0.22856,-0.55719 -0.36719,-0.82422 -0.16661,-0.3354 -0.30971,-0.6829 -0.45507,-1.02735 -0.0386,-0.14069 -0.0875,-0.30683 -0.10547,-0.44726 -0.0247,-0.19233 0.0142,-0.39295 0.006,-0.58594 0.009,-0.3358 -0.0764,-0.66973 -0.008,-1.00391 0.0252,-0.0721 0.051,-0.14465 0.0762,-0.21679 0.0122,-0.0178 0.0271,-0.0327 0.0351,-0.0527 0.002,-0.006 0.004,-0.0117 0.006,-0.0176 -0.3966,-0.13172 -0.3849,-0.55575 -0.3789,-0.88477 -3.7e-4,-0.2332 -0.005,-0.46607 0.002,-0.69922 0.008,-0.43073 -0.004,-0.85944 -0.0332,-1.28906 0.01,-0.0843 0.0138,-0.17054 0.0293,-0.25391 0.0495,-0.26521 0.20057,-0.49525 0.13477,-0.77344 0.0227,-0.11396 0.0365,-0.23004 0.0684,-0.34179 0.0442,-0.15494 0.0553,-0.0538 0.10937,-0.16797 0.0964,-0.20336 0.0839,-0.44396 0.22071,-0.63281 0.0692,-0.0884 0.13403,-0.18062 0.20507,-0.26758 0.085,-0.10412 0.0329,0.002 0.11524,-0.14649 0.0292,-0.0529 0.052,-0.11062 0.0801,-0.16406 0.0229,-0.0435 0.0498,-0.0843 0.0742,-0.12695 0.0543,-0.0667 0.10228,-0.13931 0.16211,-0.20117 0.0328,-0.0339 0.0757,-0.0556 0.11328,-0.084 0.007,-0.002 0.0161,-8.6e-4 0.0215,-0.006 0.059,-0.0544 0.11026,-0.11624 0.16992,-0.16992 0.40323,-0.36273 -0.1586,0.20682 0.36719,-0.34765 0.20952,-0.21419 0.41738,-0.43534 0.66797,-0.60352 0.0152,-0.0102 0.0314,-0.0195 0.0469,-0.0293 0.0157,-0.0252 0.0316,-0.0508 0.0469,-0.0762 0.0247,-0.0311 0.0539,-0.0596 0.0742,-0.0937 0.0344,-0.0577 0.06,-0.11946 0.0898,-0.17969 0.0344,-0.055 0.0647,-0.11258 0.10156,-0.16601 0.0281,-0.0408 0.066,-0.0749 0.0918,-0.11719 0.0362,-0.0593 0.0607,-0.12444 0.0937,-0.18555 0.0994,-0.18384 0.22207,-0.35382 0.33203,-0.53125 0.043,-0.0529 0.0821,-0.10863 0.12891,-0.1582 0.007,-0.008 0.0249,-10e-4 0.0312,-0.01 0.0505,-0.0708 0.0829,-0.1528 0.13476,-0.22265 0.10797,-0.14528 0.29477,-0.20162 0.36133,-0.38477 0.12328,-0.1628 0.23367,-0.33575 0.34961,-0.5039 0.065,-0.18469 0.11726,-0.35818 0.26367,-0.51172 0.0456,-0.12298 0.17303,-0.14131 0.3125,-0.13477 0.009,-0.01 0.01,-0.0104 0.0195,-0.0215 0.0901,-0.1136 0.18766,-0.22097 0.27344,-0.33789 0.0686,-0.0935 0.12639,-0.19694 0.19922,-0.28711 0.0317,-0.0393 0.0763,-0.0653 0.11328,-0.0996 0.25683,-0.2386 0.10777,-0.13167 0.32031,-0.26953 0.16642,-0.0354 -0.0145,0.0169 0.22461,-0.26172 0.16099,-0.18761 0.41255,-0.26301 0.61524,-0.39063 0.063,-0.0411 0.13044,-0.0731 0.1914,-0.11718 0.20105,-0.14541 0.38548,-0.32204 0.55469,-0.50196 0.065,-0.0462 0.12629,-0.0988 0.19531,-0.13867 0.3178,-0.1837 0.0848,-0.0367 0.26758,-0.10351 0.11098,-0.0406 0.20861,-0.1137 0.31641,-0.16211 0.058,-0.0261 0.11962,-0.0416 0.17969,-0.0625 0.15806,-0.099 0.20713,-0.14065 0.38671,-0.21289 0.0482,-0.0194 0.0998,-0.0316 0.1504,-0.043 0.0114,-0.003 0.0246,0.007 0.0351,0.002 0.0637,-0.0291 0.1224,-0.0676 0.1836,-0.10156 0.0559,-0.0234 0.11014,-0.047 0.16601,-0.0703 0.15358,-0.0697 0.29742,-0.16179 0.45313,-0.22656 0.0638,-0.0265 0.13341,-0.0374 0.20117,-0.0508 0.25685,-0.0506 0.50286,-0.0649 0.76367,-0.0527 0.45152,-1.2e-4 0.90395,0.002 1.35547,0.002 0.46369,-3.3e-4 0.92694,-0.006 1.39062,0 0.53536,0.006 1.06882,10e-4 1.60352,-0.0273 z m 0.45508,0.91406 c 0.0157,0.008 0.0311,0.0172 0.0469,0.0254 0.0544,0.0283 0.10777,0.0596 0.16407,0.084 0.0331,0.0143 0.0716,0.0145 0.10351,0.0312 0.069,0.0363 0.13212,0.0822 0.19727,0.125 0.0113,0.007 0.044,0.0298 0.0312,0.0254 -0.0768,-0.0269 -0.15127,-0.0609 -0.22657,-0.0918 0.11895,0.0593 0.23452,0.1271 0.35743,0.17773 0.0441,0.0182 -0.15104,-0.10317 -0.10352,-0.0996 0.14999,0.0113 0.28943,0.0797 0.42187,0.1582 0.005,-0.076 0.0235,-0.1454 0.0352,-0.21679 -0.0144,0.002 -0.0292,0.001 -0.043,-0.002 -0.0666,-0.0156 -0.13014,-0.0399 -0.19531,-0.0605 -0.0361,-0.006 -0.0719,-0.009 -0.10742,-0.0176 -0.0695,-0.0163 -0.13754,-0.0403 -0.20703,-0.0566 -0.15795,-0.037 -0.31566,-0.0637 -0.47461,-0.082 z m -5.94727,0.2793 c -0.0336,0.0137 -0.0669,0.0272 -0.0996,0.043 -0.0297,0.0144 -0.0536,0.0397 -0.084,0.0527 -0.83139,0.3553 0.22178,-0.11486 -0.38086,0.125 -0.0601,0.0239 -0.10597,0.0741 -0.16016,0.10937 -0.22032,0.0324 -0.38115,0.19517 -0.58008,0.27344 -0.0908,0.0357 -0.24239,0.0509 -0.30664,0.14258 -0.17799,0.21505 -0.4031,0.38163 -0.63281,0.53906 0.0115,-0.006 0.0237,-0.01 0.0352,-0.0156 0.2569,-0.13105 0.40229,-0.23618 0.64453,-0.39453 0.33996,-0.21319 0.70362,-0.37977 1.05664,-0.56836 0.13873,-0.0741 0.27188,-0.15984 0.4082,-0.23829 0.0336,-0.0225 0.0661,-0.0456 0.0996,-0.0684 z m 3.56055,0.95312 c -0.0153,0.13087 -0.0286,0.26161 -0.043,0.39258 -0.003,0.0318 -0.005,0.0639 -0.008,0.0957 0.0844,-0.16231 0.16768,-0.3259 0.25195,-0.48828 -0.0671,-2e-5 -0.13404,-1e-5 -0.20117,0 z m 3.08008,0.11719 c 0.001,0.0951 0.002,0.19508 0.004,0.3125 0.0241,-0.0759 0.0448,-0.1561 0.0723,-0.22461 -0.0303,-0.0281 -0.0543,-0.057 -0.0762,-0.0879 z m 3.02148,1.11914 c 0.0371,0.0423 0.0759,0.0849 0.11328,0.12695 0,0 0.002,-0.002 0.002,-0.002 -0.007,-0.01 -0.0185,-0.0122 -0.0137,-0.0176 0.006,-0.006 0.0152,0.008 0.0234,0.0117 0.021,-0.0119 0.0283,-0.0188 0.0508,-0.0312 -0.0267,-0.0181 -0.062,-0.0463 -0.15234,-0.0781 -0.008,-0.003 -0.0156,-0.007 -0.0234,-0.01 z m -12.03906,0.15234 c -0.0292,0.0183 -0.059,0.0359 -0.0879,0.0547 0.007,0.008 0.0131,0.0169 0.0195,0.0254 0.0224,-0.0271 0.0458,-0.053 0.0684,-0.0801 z m 12.37695,0.0156 c 0.0225,0.0387 0.0449,0.0804 0.0645,0.10937 0.0314,0.0465 0.0495,0.1009 0.0723,0.15235 0.007,0.006 0.0143,0.01 0.0215,0.0156 0.0361,-0.0139 0.0697,-0.0312 0.10742,-0.043 -0.0115,-0.0231 -0.0227,-0.047 -0.0371,-0.0684 -0.006,-0.009 0.003,0.022 0.004,0.0332 -0.0708,-0.0375 -0.0868,-0.12803 -0.14648,-0.17579 -0.006,-0.005 -0.0142,0.0103 -0.0215,0.008 -0.0227,-0.008 -0.0429,-0.0206 -0.0645,-0.0312 z m -9.78906,0.0391 c -0.0137,0.0144 -0.0274,0.0286 -0.041,0.043 0.0307,0.001 0.061,0.0108 0.0918,0.0137 1.8e-4,-5.9e-4 0.009,-0.0312 0.008,-0.0254 -0.0192,-0.0108 -0.0392,-0.0152 -0.0586,-0.0312 z m 0.58594,0.0176 c -0.0276,0.01 -0.0555,0.0219 -0.0762,0.0293 -0.1104,0.0181 -0.1987,0.0338 -0.28321,0.0332 0.10511,0.0203 0.20591,0.0523 0.30469,0.0918 0.0153,-0.0499 0.0387,-0.10441 0.0547,-0.15429 z m 9.4707,0.18164 c -0.0202,0.009 -0.0519,0.008 -0.0391,0.0137 0.0262,0.011 0.0328,0.008 0.0566,0.0176 -0.005,-0.0107 -0.0123,-0.0206 -0.0176,-0.0312 z m -10.26172,0.0234 c -0.0335,0.0355 -0.0663,0.0718 -0.0996,0.10742 0.005,0.0109 0.0113,0.0181 0.0156,0.0293 0.0277,-0.0458 0.0524,-0.0931 0.084,-0.13671 z m 8.86328,0.0547 c 0.003,0.007 0.003,0.0104 0.006,0.0176 0.009,10e-4 0.0167,5.8e-4 0.0254,0.002 -0.0103,-0.007 -0.0208,-0.0131 -0.0312,-0.0195 z m -8.82422,0.2168 c -0.0372,0.0888 -0.034,0.11048 0,0.12109 -0.002,-0.0414 0.003,-0.0788 0,-0.12109 z m -4.36718,0.375 c -0.0178,0.0178 -0.021,0.0232 -0.043,0.0449 -0.0279,0.0276 -0.0564,0.0541 -0.0859,0.0801 -0.007,0.0194 -0.0138,0.0394 -0.0215,0.0586 -0.0129,0.0323 -0.0394,0.0932 -0.0566,0.13477 0.0745,-0.10731 0.14482,-0.2168 0.20703,-0.31836 z m 12.64257,0.44531 c 0.0434,0.34667 0.0879,0.69249 0.13672,1.03711 0.11216,0.007 0.22377,0.0143 0.33594,0.0215 -0.0219,-0.0377 -0.0354,-0.0745 -0.15625,-0.33008 -0.0405,-0.11242 -0.0735,-0.22631 -0.12109,-0.33594 -0.18025,-0.41517 -0.18896,-0.40084 -0.19532,-0.39258 z m 2.33399,0.70703 c 0.012,0.0864 0.0304,0.17146 0.041,0.25782 0.008,0.12809 0.0189,0.22064 0.0176,0.29101 -1e-5,9.4e-4 2e-5,0.003 0,0.004 0.0111,0.0179 0.0203,0.0347 0.004,0.0391 -0.01,0.003 -0.0121,0.003 -0.0215,0.006 -0.008,0.0455 -0.0225,0.0894 -0.0605,0.11719 0.0152,0.004 0.0336,0.007 0.0508,0.0117 0.0838,-0.0435 0.16943,-0.083 0.2539,-0.125 -0.0842,-0.14918 -0.14516,-0.30987 -0.21874,-0.46485 -0.0217,-0.0457 -0.0439,-0.0913 -0.0664,-0.13672 z m -14.44531,0.22461 c -0.017,0.022 -0.03,0.0466 -0.0469,0.0684 -0.0301,0.045 -0.0597,0.0917 -0.0898,0.13672 -0.006,0.001 -0.0153,-0.001 -0.0195,0.004 -0.0978,0.11864 -0.1016,0.29663 -0.20899,0.41211 -0.0935,0.20972 -0.044,0.13479 -0.13281,0.26172 -0.0333,0.0476 -0.0643,0.0979 -0.10156,0.14257 -0.0215,0.0258 -0.003,-0.0582 -0.0274,0.002 -0.0213,0.0531 -0.0368,0.10979 -0.0547,0.16406 -0.054,0.11376 -0.10161,0.21797 -0.16797,0.33008 -0.007,0.0122 0.0152,-0.0553 0.008,-0.043 -0.033,0.0571 -0.059,0.12247 -0.0918,0.18359 0.009,0.0116 0.0204,0.0216 0.0293,0.0332 0.0378,-0.0746 0.0755,-0.15001 0.11328,-0.22461 0.09,-0.17753 0.1735,-0.35693 0.26953,-0.53125 0.16616,-0.30161 0.3128,-0.51805 0.48242,-0.77539 0.0161,-0.054 0.0261,-0.10924 0.0391,-0.16407 z m 14.24218,0.56055 c -0.0296,0.008 -0.0608,0.0192 -0.0977,0.0273 0.008,0.1453 0.0318,0.33638 0.0527,0.51954 0.0553,0.10487 0.10836,0.21019 0.16016,0.3164 -0.0591,-0.26077 -0.1251,-0.51988 -0.15625,-0.78711 0.0183,-0.009 0.0365,-0.0182 0.0547,-0.0273 -0.004,-0.015 -0.0117,-0.0371 -0.0137,-0.0488 z m -15.72656,0.25391 c -0.0756,0.12686 -0.1444,0.25715 -0.21875,0.38476 -7.2e-4,0.002 -0.001,0.004 -0.002,0.006 0.0166,-0.0164 0.0393,-0.0303 0.0469,-0.0508 0.005,-0.0124 8.1e-4,-0.0281 0.008,-0.0391 0.044,-0.0666 0.10221,-0.1238 0.14453,-0.19141 0.009,-0.0137 -0.0442,0.0431 -0.041,0.0273 0.01,-0.0491 0.0415,-0.0913 0.0625,-0.13671 z m 10.15234,0.9707 c -0.0116,0.0193 -0.0276,0.0483 -0.0391,0.0684 0.0137,0.006 0.0255,0.0171 0.0391,0.0234 -9.5e-4,-0.0316 10e-4,-0.0585 0,-0.0918 z m 1.16016,0.80859 c -0.009,0.0348 -0.0183,0.072 -0.0273,0.10742 0.0131,-0.008 0.0258,-0.0172 0.0391,-0.0254 -0.004,-0.0273 -0.008,-0.0547 -0.0117,-0.082 z m -4.01172,0.17188 c -0.002,10e-4 -0.004,9.1e-4 -0.006,0.002 -0.25708,0.15036 -0.36043,0.40576 -0.41015,0.67578 0.10279,-0.0806 0.20878,-0.16479 0.31054,-0.23242 0.013,-0.0389 0.0289,-0.10104 0.041,-0.13672 0.0319,-0.0938 0.0459,-0.20257 0.0644,-0.30859 z m -6.88867,0.35547 c -0.0647,0.0292 -0.13226,0.0694 -0.14844,0.0625 -0.008,-0.003 -0.01,-0.005 -0.0176,-0.008 -0.0208,0.11187 -0.0563,0.22931 -0.0664,0.33789 -1.1e-4,-0.002 -0.007,0.0738 -0.008,0.0742 -0.002,0.0604 -2.2e-4,0.0368 -0.002,0.0879 0.0436,-0.0804 0.12191,-0.23137 0.20508,-0.38671 0.009,-0.0552 0.0275,-0.11285 0.0371,-0.16797 z m 2.10352,0.0976 c -0.006,0.004 -0.0114,0.008 -0.0176,0.0117 -0.0173,0.0782 -0.0355,0.15634 -0.0527,0.23438 0.0246,-0.0816 0.045,-0.16471 0.0703,-0.2461 z m -5.45703,0.19727 c -0.0637,0.0829 -0.1271,0.1656 -0.19141,0.24805 0.0759,0.0101 0.0397,-0.004 -0.006,0.14843 -0.0225,0.0756 -0.0444,0.1524 -0.0762,0.22461 -0.0352,0.0798 -0.0828,0.15406 -0.125,0.23047 -0.0166,0.0301 -0.0474,0.0556 -0.0508,0.0898 -0.002,0.0179 0.0299,-0.0194 0.0449,-0.0293 0.0126,0.0573 0.007,0.1122 0.006,0.16797 0.0536,-0.13296 0.11716,-0.26219 0.16992,-0.39258 0.0358,-0.0923 0.12186,-0.31198 0.15234,-0.41211 0.0277,-0.0909 0.0515,-0.18321 0.0762,-0.27539 z m 12.26757,0.14453 c -0.0465,0.26808 -0.10102,0.53392 -0.15429,0.80078 -0.0586,0.29339 -0.0812,0.36895 -0.1211,0.56641 0.0944,-0.12932 0.19387,-0.255 0.30078,-0.37696 10e-4,-0.33133 -0.006,-0.66185 -0.0254,-0.99023 z m 9.00977,0.0234 c -1.4e-4,0.004 -0.002,0.008 -0.002,0.0117 -10e-5,0.007 0.01,-0.0136 0.0117,-0.0117 -0.003,4.7e-4 -0.007,-4.3e-4 -0.01,0 z m -13.98047,0.18359 c -0.0137,0.005 -0.0271,0.008 -0.041,0.0117 -9.3e-4,-2.9e-4 0.001,0.004 0,0.004 -0.001,-5.7e-4 -0.003,-10e-4 -0.004,-0.002 -0.0396,0.0112 -0.0748,0.0315 -0.11524,0.0371 -0.0755,0.25271 -0.1492,0.47263 -0.23047,0.73438 -0.035,0.17735 -0.0661,0.3556 -0.0996,0.5332 -0.0205,0.0919 -0.0435,0.19586 -0.0645,0.29102 0.13917,-0.38895 0.27346,-0.77977 0.41992,-1.16602 0.0538,-0.14191 0.0906,-0.29461 0.13477,-0.44336 z m 7.04102,0.32227 c -0.004,0.002 -0.0131,0.008 -0.0176,0.01 3e-4,0.003 -3e-4,0.007 0,0.01 0.006,-0.007 0.0116,-0.0123 0.0176,-0.0195 z m -4.66016,0.64453 c -0.0882,0.0832 -0.1822,0.16753 -0.26563,0.25195 -0.006,0.0591 -0.0129,0.12078 -0.0176,0.1836 0.0538,0.018 0.0768,0.0184 0.13867,0.041 0.0385,-0.14346 0.0959,-0.30862 0.14453,-0.47656 z m -4.54688,0.19531 c -0.0711,0.46914 -0.14751,0.93754 -0.20898,1.4082 0.0585,-0.29929 0.11039,-0.60103 0.18555,-0.89648 0.033,-0.12967 0.0756,-0.25637 0.11328,-0.38477 -0.0292,-0.0388 -0.0587,-0.077 -0.0899,-0.12695 z m -5.62109,0.0898 c -0.003,0.009 -0.005,0.0182 -0.008,0.0274 0.001,-0.002 0.005,-0.003 0.006,-0.006 0.001,-0.007 0.001,-0.0143 0.002,-0.0215 z m 15.63477,0.80079 c -0.0185,0.0274 -0.0363,0.0561 -0.0547,0.084 -0.0373,0.16674 -0.0637,0.34962 -0.0977,0.51953 0.003,-0.003 0.009,-0.008 0.0117,-0.0117 0.0641,-0.073 0.0742,-0.1014 0.12695,-0.16406 0.0649,-0.16756 0.0963,-0.2407 0.14649,-0.37109 -0.0449,-0.0155 -0.0981,-0.0261 -0.13281,-0.0566 z m 1.5,0.23242 c -0.0107,0.0336 -0.0163,0.0681 -0.0273,0.10156 -0.041,0.24661 -0.0992,0.49359 -0.1875,0.73828 -0.27959,0.61085 -0.36121,0.91743 -0.71484,1.28906 -0.0324,0.0571 -0.0606,0.11981 -0.0937,0.17579 -0.13276,0.22444 -0.28663,0.43611 -0.43555,0.65039 0.0374,-0.0151 0.0763,-0.0257 0.11328,-0.043 0,0 0.002,0 0.002,0 0.053,-0.0519 0.107,-0.10348 0.15625,-0.15821 0.14765,-0.0667 0.22105,-0.11185 0.28711,-0.14257 0.16185,-0.35639 0.31203,-0.71943 0.42187,-0.98243 0.15371,-0.36802 0.32914,-0.7277 0.45703,-1.10547 0.0426,-0.12577 0.0438,-0.17673 0.0742,-0.27734 -0.0402,-0.0502 -0.0482,-0.14528 -0.0527,-0.24609 z m -11.82422,1.05469 c -0.0144,0.10544 -0.0279,0.21105 -0.043,0.3164 -0.0153,0.12864 -0.0175,0.2579 -0.0254,0.38672 0.002,0.0203 0.004,0.0365 0.006,0.0586 0.0103,-0.0229 0.0208,-0.0455 0.0312,-0.0684 0.002,-0.0358 0.005,-0.0736 0.004,-0.10156 -0.009,-0.16048 0.007,-0.3791 0.0273,-0.59179 z m 11.98047,1.95312 c -0.0129,0.0338 -0.0179,0.0468 -0.0312,0.082 0.011,-0.0105 0.0199,-0.023 0.0312,-0.0332 -6.8e-4,-0.0162 5.7e-4,-0.0326 0,-0.0488 z m -11.39063,0.40039 c -0.004,0.0247 -0.006,0.0495 -0.01,0.0742 0.009,-0.0162 0.0204,-0.0368 0.0293,-0.0527 -0.007,-0.006 -0.0138,-0.0132 -0.0195,-0.0215 z m 13.9043,0.3125 c -0.004,0.0194 -0.006,0.0392 -0.01,0.0586 0.001,-10e-4 0.003,-0.003 0.004,-0.004 0.002,-0.0183 0.004,-0.0364 0.006,-0.0547 z m -7.16016,0.10938 c -0.0811,0.0479 -0.16273,0.0945 -0.24023,0.14648 0.007,0.0236 0.0157,0.0469 0.0234,0.0703 5e-4,0.003 0.001,0.005 0.002,0.008 0.075,-0.005 0.14954,-0.0125 0.22461,-0.0176 0.0127,-0.0407 0.0277,-0.0806 0.041,-0.1211 -0.004,-0.0231 -0.0123,-0.0451 -0.0156,-0.0684 -0.0118,-0.006 -0.0234,-0.011 -0.0352,-0.0176 z m -3.74219,0.58007 c -0.0231,0.0376 -0.0497,0.0728 -0.0742,0.10938 -0.0393,0.08 -0.0574,0.14725 -0.0801,0.2168 0.006,-0.001 0.0116,-0.003 0.0176,-0.004 0.0494,-0.10577 0.096,-0.21263 0.13671,-0.32227 z m 7.28711,0.0898 c -0.0927,0.0644 -0.202,0.10378 -0.2832,0.11719 -0.0149,0.015 -0.0301,0.0298 -0.0449,0.0449 -0.003,0.0352 -0.005,0.0703 -0.008,0.10547 0.0966,-0.0457 0.2128,-0.10115 0.33203,-0.14063 0.001,-0.0423 0.003,-0.0846 0.004,-0.12695 z m -1.79687,0.82812 c -0.13732,0.0141 -0.27729,0.0142 -0.41602,0.008 0.0205,0.16852 0.0331,0.33719 0.041,0.50586 0.0594,-0.009 0.1065,0.0463 0.17383,0.25586 0.001,0.004 8.5e-4,0.008 0.002,0.0117 0.0167,-0.0242 0.0276,-0.0523 0.0449,-0.0762 0.002,-0.003 0.005,-0.006 0.008,-0.01 0.0465,-0.23217 0.0938,-0.46439 0.14649,-0.69531 z m 6.02734,0 c -0.0116,0.0457 -0.0287,0.0983 -0.041,0.14453 0.0789,0.0933 0.0936,0.22475 0.0937,0.36328 0.0446,-0.1687 0.0957,-0.35726 0.0957,-0.35742 0.0127,-0.0417 0.0264,-0.0833 0.0391,-0.125 -0.0281,0.0178 -0.12397,-0.005 -0.1875,-0.0254 z m -19.54883,0.15039 c 0.0651,0.14969 0.1363,0.29697 0.19922,0.44727 0.10579,0.25269 0.0224,0.18643 0.12696,0.25586 0.0766,0.0636 0.12691,0.14722 0.17382,0.23242 -0.003,-0.0283 -0.0118,-0.0558 -0.0156,-0.084 -5.6e-4,-0.0589 0.005,-0.11723 -0.002,-0.17579 -0.002,-0.0151 -0.0181,-0.0249 -0.0234,-0.0391 -0.0677,-0.23385 0.005,-4.9e-4 -0.0762,-0.19726 -0.006,-0.0146 -0.003,-0.0173 -0.008,-0.0293 -0.23124,-0.0953 -0.29483,-0.21297 -0.35742,-0.40625 -0.007,-6.8e-4 -0.0113,-0.003 -0.0176,-0.004 z m 6.77149,0.18164 c -0.0101,0.016 -0.0191,0.033 -0.0293,0.0488 0.0618,0.0484 0.13207,0.10347 0.22266,0.17188 -0.0272,-0.059 -0.0551,-0.10117 -0.0918,-0.18164 -0.002,-0.0124 -0.004,-0.0248 -0.006,-0.0371 -0.0319,-9.1e-4 -0.0638,-4.3e-4 -0.0957,-0.002 z m -5.08594,0.17969 c -0.0185,2.7e-4 -0.0361,0.004 -0.0547,0.004 -0.016,0.22565 -0.059,0.42956 -0.24414,0.52148 0.005,0.0141 -0.002,0.005 0.01,0.0527 0.13192,0.55702 -0.11012,-0.15892 0.11133,0.36328 0.10282,0.317 -0.0548,-0.15796 0.125,0.33789 0.0211,0.0583 0.0398,0.11612 0.0566,0.17578 0.007,0.0238 0.004,0.0516 0.0137,0.0742 0.11199,0.25628 0.076,0.17275 0.0684,0.14258 -0.0395,-0.31439 -0.0599,-0.63237 -0.0684,-0.94727 0.0157,-0.0808 0.0243,-0.11483 0.0352,-0.17969 -0.0181,-0.18198 -0.0369,-0.36274 -0.0527,-0.54492 z m 13.29492,0.72266 c -0.001,0.0407 -0.005,0.0845 0.002,0.11523 -0.002,0.0494 -0.005,0.0989 -0.006,0.14844 0.01,-0.085 0.0228,-0.16934 0.0351,-0.25391 -0.009,-0.004 -0.0221,-0.005 -0.0312,-0.01 z m -10.71679,0.15625 c 0.12525,0.43458 0.11842,0.62641 0.13671,1.13281 0.0847,-0.0101 0.16202,-0.006 0.23243,0.0137 -0.0432,-0.0818 -0.0857,-0.1633 -0.13086,-0.27734 -0.0806,-0.20369 -0.11768,-0.42403 -0.15039,-0.64063 -0.0114,-0.0756 -0.0112,-0.148 -0.0195,-0.22265 -0.015,-10e-4 -0.0557,-0.004 -0.0684,-0.006 z m 7.5332,0.084 c -0.009,0.009 -0.0179,0.0207 -0.0273,0.0293 -0.0829,0.075 -0.17966,0.13366 -0.27735,0.18945 -0.0102,0.0286 -0.0185,0.0575 -0.0293,0.0859 0.0132,-0.009 0.028,-0.0138 0.041,-0.0234 0.0911,-0.0678 0.17868,-0.14029 0.26758,-0.21094 0.009,-0.0233 0.0163,-0.047 0.0254,-0.0703 z m -3.11719,0.93555 c -0.0109,9e-4 -0.0225,0.003 -0.0332,0.004 0.006,0.0126 0.0142,0.0245 0.0195,0.0371 0.004,-0.0137 0.009,-0.0273 0.0137,-0.041 z m 9.11328,0.15039 c -0.008,0.0127 -0.0232,0.0244 -0.0332,0.0371 -0.004,0.0101 -0.0219,0.0687 -0.0371,0.10351 0.0268,-0.0453 0.0475,-0.0941 0.0723,-0.14062 0,0 -0.002,0 -0.002,0 z m -10.54882,0.0605 c -0.0532,0.0598 -0.0947,0.13096 -0.11524,0.21679 -0.007,0.0296 0.0128,0.0955 0.0215,0.14649 0.005,0.004 0.009,0.006 0.0137,0.01 0.006,3e-4 0.0138,-2.7e-4 0.0195,0 0.0283,-0.0943 0.0514,-0.19038 0.0879,-0.28125 -0.008,-0.031 -0.0151,-0.0625 -0.0273,-0.0918 z m 3.32226,1.17382 c -0.0252,0.0661 -0.051,0.13787 -0.0781,0.20704 -0.0709,0.28291 -0.13833,0.52354 -0.21485,0.93359 -0.007,0.0382 -0.003,0.0814 -0.002,0.12305 0.0511,0.055 0.0784,0.12688 0.11133,0.19531 0.0891,0.001 0.17843,5.9e-4 0.26757,0.002 0.003,-0.41493 0.078,-0.82139 0.1836,-1.22656 0.001,-0.0177 0.003,-0.035 0.004,-0.0527 -0.0371,-0.0207 -0.0761,-0.0388 -0.11132,-0.0625 -0.055,-0.0371 -0.10646,-0.0797 -0.16016,-0.11915 z m 3.98242,0.26368 c -0.02,0.0751 -0.0337,0.1517 -0.0547,0.22656 -0.0339,0.12084 -0.065,0.24177 -0.0977,0.36328 0.002,0.0636 0.0159,0.18037 0.0195,0.28516 0.0282,-0.10481 0.0587,-0.22292 0.084,-0.32032 0.034,-0.12063 0.0357,-0.12688 0.0645,-0.22851 -0.0235,-0.0946 -0.0251,-0.20297 -0.0156,-0.32617 z m 1.5,0.0937 c -0.001,0.0223 -0.004,0.0441 -0.006,0.0664 0.0537,0.0232 0.1298,0.0583 0.17188,0.0762 0.0252,-0.0243 0.051,-0.0479 0.0762,-0.0723 -0.0841,-0.0174 -0.16452,-0.0421 -0.24219,-0.0703 z m -11.08398,0.0156 c -0.005,0.0214 -0.002,0.0437 -0.01,0.0644 -0.013,0.0368 -0.0361,0.07 -0.0527,0.10547 0.0803,0.0345 0.16168,0.0754 0.23828,0.0996 0.051,0.0162 0.1052,0.0211 0.1582,0.0293 -0.0406,-0.0319 -0.0839,-0.06 -0.12304,-0.0937 -0.0994,-0.0857 -0.14625,-0.1405 -0.21094,-0.20508 z m -1.45703,0.52539 c 0.10524,0.0925 0.20693,0.19166 0.30859,0.24805 0.0115,0.006 -0.0266,-0.035 -0.0137,-0.0371 0.0328,-0.005 0.0669,0.0107 0.0977,0.0234 0.0729,0.0302 0.1402,0.0686 0.21094,0.10351 0.16618,0.0629 0.29167,0.19892 0.44141,0.28711 0.0265,0.0156 0.0601,0.0124 0.0879,0.0254 0.25755,0.14053 0.14639,0.0868 0.33008,0.16992 0.1369,0.0633 0.23657,0.18453 0.36523,0.25977 0.0476,0.0279 0.10054,0.0427 0.15039,0.0664 0.17785,0.0844 0.34555,0.17662 0.5293,0.24804 0.0697,0.0277 0.1374,0.0617 0.20898,0.084 0.0409,0.0127 0.0828,0.0144 0.125,0.0215 0.0117,0.003 0.0234,0.005 0.0352,0.008 -0.0632,-0.048 -0.12956,-0.0923 -0.1875,-0.14648 -0.0473,-0.0443 -0.28497,-0.40639 -0.35156,-0.33594 -0.14893,0.002 -0.38377,-0.28193 -0.5293,-0.22461 -0.20283,-0.033 -0.33665,-0.11092 -0.50976,-0.21093 -0.057,-0.0329 -0.0696,-0.0488 -0.082,-0.0625 -0.0112,-0.004 -0.022,-0.0114 -0.0332,-0.0156 -0.005,-0.002 -0.007,-0.007 -0.0273,0 0.0126,0.008 0.0536,0.0266 0.0391,0.0234 -0.37341,-0.0812 -0.71077,-0.28457 -1.02539,-0.49219 -0.0587,0.01 -0.11439,-0.0151 -0.16992,-0.043 z m 3.13476,0.71094 c 0.0404,0.004 0.0806,0.007 0.1211,0.01 -0.004,-0.002 -0.007,-0.003 -0.01,-0.004 -0.0373,-0.002 -0.1485,-0.009 -0.11133,-0.006 z m 5.79492,0.41211 c -0.007,0.0167 -0.0126,0.0344 -0.0195,0.0508 0.026,2.7e-4 0.0521,-3.3e-4 0.0781,0 -0.0188,-0.0183 -0.0406,-0.0314 -0.0586,-0.0508 z m -2.90039,0.31836 c -0.22096,0.0142 -0.27934,0.0231 -0.33593,0.0273 -0.0469,0.0883 -0.085,0.1804 -0.13672,0.26563 -0.0158,0.0261 -0.0397,0.0464 -0.0586,0.0703 0.21245,-1.5e-4 0.42426,-0.004 0.63672,-0.002 8.8e-4,-0.0185 0.002,-0.0376 0,-0.0527 -0.0189,-0.11831 -0.0217,-0.21414 -0.0312,-0.30859 -0.0247,3.9e-4 -0.0495,-4.9e-4 -0.0742,0 z m 0.95704,0.006 c 0.007,0.0521 0.0139,0.10424 0.0215,0.15625 0.01,0.0662 0.0208,0.13312 0.0312,0.19922 0.0397,-6e-5 0.0794,-0.002 0.11914,-0.002 -0.022,-0.0914 -0.0485,-0.1747 -0.10547,-0.35351 -0.0221,-3.2e-4 -0.0443,3e-4 -0.0664,0 z m -3.85743,0.13476 c 0.044,0.0178 0.0878,0.0358 0.13282,0.0508 0.006,0.002 0.0131,0.004 0.0195,0.006 -0.0392,-0.0166 -0.0772,-0.0344 -0.11719,-0.0488 -0.0113,-0.004 -0.0233,-0.005 -0.0352,-0.008 z"
     style="fill:#ff2a2a;fill-opacity:1;stroke:none;stroke-opacity:1"
     id="path1052" /><ellipse
     ry="31"
     rx="30"
     cy="221.20001"
     cx="240.5"
     id="path1054"
     style="fill:#ff2a2a;fill-opacity:1;stroke:none;stroke-opacity:1" /><rect
     transform="matrix(0.99999813,0.00193244,-0.00333549,0.99999444,0,0)"
     ry="0"
     y="190.24982"
     x="259.54526"
     height="65.415985"
     width="14.142118"
     id="rect974-7-8-5"
     style="display:inline;fill:#ff2a2a;fill-opacity:1;stroke:none;stroke-width:0.52408904;stroke-opacity:1" /><path
     d="m 184.4101,220.0878 a 18.95505,20.862213 0 0 1 -18.91002,20.86215 18.95505,20.862213 0 0 1 -18.99987,-20.76303 18.95505,20.862213 0 0 1 18.81975,-20.9608 18.95505,20.862213 0 0 1 19.08928,20.66344 l -18.95419,0.19824 z"
     id="path1101"
     style="fill:#ffff00;fill-opacity:1;stroke:none;stroke-width:1.14364743;stroke-opacity:1" /></g></svg>